HIERARCHY
ROOT Hips
{
	OFFSET 0.00 86.18 0.00
	CHANNELS 6 Xposition Yposition Zposition Yrotation Xrotation Zrotation
	JOINT RightUpLeg
	{
		OFFSET -9.25 0.00 0.00
		CHANNELS 6 Xposition Yposition Zposition Yrotation Xrotation Zrotation
		JOINT RightLeg
		{
			OFFSET 0.00 -42.00 0.00
			CHANNELS 6 Xposition Yposition Zposition Yrotation Xrotation Zrotation
			JOINT RightFoot
			{
				OFFSET 0.00 -42.00 0.00
				CHANNELS 6 Xposition Yposition Zposition Yrotation Xrotation Zrotation
				End Site
				{
					OFFSET 0 -1.14 11.36
				}
			}
		}
	}
	JOINT LeftUpLeg
	{
		OFFSET 9.25 0.00 0.00
		CHANNELS 6 Xposition Yposition Zposition Yrotation Xrotation Zrotation
		JOINT LeftLeg
		{
			OFFSET 0.00 -42.00 0.00
			CHANNELS 6 Xposition Yposition Zposition Yrotation Xrotation Zrotation
			JOINT LeftFoot
			{
				OFFSET 0.00 -42.00 0.00
				CHANNELS 6 Xposition Yposition Zposition Yrotation Xrotation Zrotation
				End Site
				{
					OFFSET 0 -1.14 11.36
				}
			}
		}
	}
	JOINT Spine
	{
		OFFSET 0.00 10.46 0.00
		CHANNELS 6 Xposition Yposition Zposition Yrotation Xrotation Zrotation
		JOINT Spine1
		{
			OFFSET 0.00 9.75 0.00
			CHANNELS 6 Xposition Yposition Zposition Yrotation Xrotation Zrotation
			JOINT Spine2
			{
				OFFSET 0.00 10.15 0.00
				CHANNELS 6 Xposition Yposition Zposition Yrotation Xrotation Zrotation
				JOINT Spine3
				{
					OFFSET 0.00 9.75 0.00
					CHANNELS 6 Xposition Yposition Zposition Yrotation Xrotation Zrotation
			 		JOINT Neck
					{
						OFFSET 0.00 10.42 0.00
						CHANNELS 6 Xposition Yposition Zposition Yrotation Xrotation Zrotation
						JOINT Head
						{
							OFFSET 0.00 9.50 0.00
							CHANNELS 6 Xposition Yposition Zposition Yrotation Xrotation Zrotation
							End Site
							{
								OFFSET 0 16.00 0
							}
						}    
					} 
					JOINT RightShoulder
	 					{
						OFFSET -3.20 6.94 0.00
						CHANNELS 6 Xposition Yposition Zposition Yrotation Xrotation Zrotation
						JOINT RightArm
						{
							OFFSET -16.00 0.00 0.00
							CHANNELS 6 Xposition Yposition Zposition Yrotation Xrotation Zrotation
							JOINT RightForeArm
							{
								OFFSET -26.50 0.00 0.00
								CHANNELS 6 Xposition Yposition Zposition Yrotation Xrotation Zrotation
								JOINT RightHand
								{
									OFFSET -26.00 0.00 0.00
									CHANNELS 6 Xposition Yposition Zposition Yrotation Xrotation Zrotation
									End Site
									{
										OFFSET -17.50 0 0
									}
								}
							}
						}	
					}
					JOINT LeftShoulder
					{
						OFFSET 3.20 6.94 0.00
						CHANNELS 6 Xposition Yposition Zposition Yrotation Xrotation Zrotation
						JOINT LeftArm
						{
							OFFSET 16.00 0.00 0.00
							CHANNELS 6 Xposition Yposition Zposition Yrotation Xrotation Zrotation
							JOINT LeftForeArm
							{
								OFFSET 26.50 0.00 0.00
								CHANNELS 6 Xposition Yposition Zposition Yrotation Xrotation Zrotation
								JOINT LeftHand
								{
									OFFSET 26.00 0.00 0.00
									CHANNELS 6 Xposition Yposition Zposition Yrotation Xrotation Zrotation
									End Site
									{
										OFFSET 17.50 0 0
									}
								}
							}
						}
					}     			
				}
			}
		} 
	} 
}
MOTION
Frames: 5
Frame Time: 0.010
48.41 83.00 -8.39 119.68 -9.50 -1.87 -9.01 0.34 -2.14 -3.91 3.76 -9.15 2.89 -44.51 0.49 12.47 56.52 -2.89 -1.51 -39.00 2.61 -5.35 -19.79 2.58 7.98 -1.63 -1.27 -13.03 -39.44 15.77 -0.78 -41.99 -3.29 32.53 69.81 7.21 -0.36 -42.91 3.56 -1.77 -11.10 17.16 -0.02 10.42 0.40 -14.48 31.67 6.72 0.05 9.90 -0.16 -3.21 6.73 2.46 -0.04 10.03 -0.67 -4.71 9.52 3.57 -0.07 9.67 -0.67 -1.11 -1.18 -0.10 0.08 10.37 -0.53 -1.10 -1.17 -0.11 0.13 9.50 -0.27 -19.13 -18.54 0.94 -3.22 7.05 -0.87 5.78 -2.54 2.75 -16.36 0.58 -0.68 26.50 -23.21 62.67 -27.17 0.08 0.07 105.48 9.81 -19.11 -26.24 -1.29 -1.37 23.11 -51.52 30.22 3.12 7.11 -0.10 -8.02 -1.53 -2.12 17.01 0.25 -0.00 -37.40 -24.00 -66.59 28.01 -0.41 -1.46 -104.06 3.50 6.88 24.62 -1.81 -2.43 -28.72 -5.75 5.55 
48.41 83.00 -8.39 119.68 -9.50 -1.87 -9.01 0.34 -2.14 -3.91 3.76 -9.15 2.89 -44.51 0.49 12.47 56.52 -2.89 -1.51 -39.00 2.61 -5.35 -19.79 2.58 7.98 -1.63 -1.27 -13.03 -39.44 15.77 -0.78 -41.99 -3.29 32.53 69.81 7.21 -0.36 -42.91 3.56 -1.77 -11.10 17.16 -0.03 10.41 0.41 -14.48 31.67 6.72 0.04 9.87 -0.10 -3.21 6.73 2.46 -0.02 10.04 -0.62 -4.71 9.52 3.57 -0.04 9.67 -0.60 -1.11 -1.18 -0.10 0.14 10.37 -0.40 -1.10 -1.17 -0.11 0.18 9.49 -0.22 -19.13 -18.54 0.94 -3.18 7.05 -0.80 5.78 -2.54 2.75 -16.36 0.58 -0.68 26.50 -23.21 62.67 -27.17 0.08 0.07 105.48 9.81 -19.11 -26.24 -1.29 -1.37 23.11 -51.52 30.22 3.16 7.11 -0.03 -8.02 -1.53 -2.12 17.01 0.25 -0.00 -37.40 -24.00 -66.59 28.01 -0.41 -1.46 -104.06 3.50 6.88 24.62 -1.81 -2.43 -28.72 -5.75 5.55 
48.42 83.09 -8.37 119.67 -9.50 -1.87 -9.03 0.34 -2.19 -3.91 3.77 -9.16 2.91 -44.55 0.45 12.47 56.52 -2.89 -1.44 -38.97 2.66 -5.35 -19.79 2.58 7.97 -1.66 -1.28 -13.03 -39.44 15.77 -0.78 -42.04 -3.31 32.53 69.80 7.21 -0.34 -42.92 3.54 -1.77 -11.10 17.16 -0.04 10.41 0.43 -14.48 31.67 6.72 0.03 9.84 -0.06 -3.21 6.73 2.46 -0.01 10.05 -0.59 -4.71 9.52 3.57 -0.02 9.67 -0.55 -1.11 -1.18 -0.10 0.19 10.38 -0.29 -1.10 -1.17 -0.11 0.22 9.48 -0.19 -19.13 -18.54 0.94 -3.16 7.04 -0.75 5.78 -2.54 2.75 -16.36 0.57 -0.69 26.50 -23.21 62.67 -27.17 0.10 0.06 105.48 9.81 -19.11 -26.24 -1.26 -1.36 23.11 -51.52 30.22 3.18 7.13 0.04 -8.02 -1.53 -2.12 17.02 0.26 0.01 -37.40 -24.00 -66.59 27.99 -0.41 -1.45 -104.07 3.50 6.88 24.65 -1.84 -2.39 -28.72 -5.75 5.55 
48.43 83.25 -8.33 119.67 -9.50 -1.87 -9.06 0.35 -2.29 -3.91 3.77 -9.16 2.96 -44.62 0.38 12.46 56.48 -2.89 -1.29 -38.90 2.76 -5.39 -19.77 2.56 7.95 -1.72 -1.30 -13.02 -39.43 15.77 -0.76 -42.13 -3.34 32.52 69.79 7.20 -0.29 -42.93 3.52 -1.76 -11.10 17.15 -0.04 10.40 0.44 -14.48 31.67 6.72 0.01 9.81 -0.02 -3.21 6.72 2.45 -0.01 10.05 -0.56 -4.71 9.52 3.57 -0.01 9.68 -0.51 -1.11 -1.18 -0.10 0.22 10.39 -0.19 -1.10 -1.17 -0.11 0.24 9.47 -0.17 -19.12 -18.54 0.94 -3.14 7.03 -0.71 5.78 -2.54 2.75 -16.37 0.54 -0.70 26.49 -23.21 62.68 -27.16 0.13 0.04 105.49 9.81 -19.10 -26.25 -1.19 -1.35 23.11 -51.52 30.22 3.20 7.15 0.10 -8.02 -1.53 -2.12 17.05 0.28 0.04 -37.39 -23.99 -66.59 27.95 -0.42 -1.43 -104.07 3.51 6.88 24.70 -1.91 -2.33 -28.72 -5.75 5.55 
48.47 83.57 -8.24 118.75 -9.21 -1.91 -9.07 0.29 -1.99 -4.22 4.21 -9.35 2.65 -44.30 0.41 11.94 53.98 -2.79 -0.92 -38.87 2.60 -6.84 -18.89 1.43 8.08 -1.53 -1.13 -12.52 -38.51 15.51 -0.73 -42.13 -3.02 31.26 67.73 6.14 -0.33 -42.99 3.16 -1.36 -10.38 16.67 -0.05 10.40 0.41 -14.40 31.01 6.67 -0.00 9.80 0.01 -3.20 6.61 2.42 -0.00 10.07 -0.50 -4.71 9.42 3.54 0.01 9.69 -0.43 -1.07 -1.15 -0.12 0.25 10.39 -0.11 -1.07 -1.14 -0.12 0.27 9.46 -0.11 -18.46 -18.40 0.54 -3.14 7.05 -0.61 5.76 -2.47 2.67 -16.33 0.53 -0.61 25.77 -22.80 63.15 -27.10 0.10 0.05 105.51 9.50 -18.35 -26.22 -1.13 -1.21 23.10 -51.65 30.15 3.22 7.11 0.11 -7.87 -1.50 -2.10 16.93 0.23 0.00 -36.93 -23.24 -66.53 27.87 -0.41 -1.32 -104.37 3.53 6.55 24.79 -1.73 -2.18 -28.42 -5.58 5.72 
